<?xml version="1.0" encoding="UTF-8" standalone="no"?>
<!-- Created with Inkscape (http://www.inkscape.org/) -->

<svg
   width="15.875003mm"
   height="15.875mm"
   viewBox="0 0 15.875003 15.875"
   version="1.1"
   id="svg5"
   sodipodi:docname="info.svg"
   inkscape:version="1.2.2 (b0a8486541, 2022-12-01)"
   xmlns:inkscape="http://www.inkscape.org/namespaces/inkscape"
   xmlns:sodipodi="http://sodipodi.sourceforge.net/DTD/sodipodi-0.dtd"
   xmlns="http://www.w3.org/2000/svg"
   xmlns:svg="http://www.w3.org/2000/svg">
  <sodipodi:namedview
     id="namedview7"
     pagecolor="#ffffff"
     bordercolor="#000000"
     borderopacity="0.25"
     inkscape:showpageshadow="2"
     inkscape:pageopacity="0.0"
     inkscape:pagecheckerboard="0"
     inkscape:deskcolor="#d1d1d1"
     inkscape:document-units="mm"
     showgrid="true"
     showguides="true"
     inkscape:zoom="6.2652008"
     inkscape:cx="47.564317"
     inkscape:cy="0.95767082"
     inkscape:window-width="1920"
     inkscape:window-height="1043"
     inkscape:window-x="0"
     inkscape:window-y="0"
     inkscape:window-maximized="1"
     inkscape:current-layer="layer1">
    <inkscape:grid
       type="xygrid"
       id="grid390"
       originx="-173.30184"
       originy="-48.948039" />
  </sodipodi:namedview>
  <defs
     id="defs2" />
  <g
     inkscape:label="Layer 1"
     inkscape:groupmode="layer"
     id="layer1"
     transform="translate(-99.289547,-39.699386)">
    <g
       id="g1014"
       transform="translate(0.99218832,2.6458311)" />
    <path
       id="path5401"
       style="fill:#ffffff;fill-opacity:1;stroke-width:0.226785"
       d="m 107.22705,39.699386 a 7.937501,7.937501 0 0 0 -7.937503,7.9375 7.937501,7.937501 0 0 0 7.937503,7.9375 7.937501,7.937501 0 0 0 7.9375,-7.9375 7.937501,7.937501 0 0 0 -7.9375,-7.9375 z m 0,1.318782 c 0.88469,0 1.57096,0.669729 1.57096,1.546159 0,0.868161 -0.68627,1.537891 -1.57096,1.537891 -0.8847,0 -1.57097,-0.66973 -1.57097,-1.537891 0,-0.87643 0.68627,-1.546159 1.57097,-1.546159 z m -1.48828,4.307748 h 2.98483 v 8.929687 h -2.98483 z" />
  </g>
</svg>
